<svg xmlns="http://www.w3.org/2000/svg" viewBox="0 0 2504 2504" width="100" height="100">
    <path d="M1677 769c-28 2.1-54.3 5.9-115.5 16.5-17.6 3-45.2 7.3-61.4 9.5-58.7 8.1-79.9 13.4-107.6 27-16.6 8.2-28.2 16.6-42 30.4-12.6 12.7-21.7 24-44.6 55.2-21.8 29.8-27.4 36.8-39.9 49.8-18 18.6-34.8 29.9-54.8 36.6-20.1 6.7-31.9 7.4-217.7 12-241 6-354.2 11.1-412.5 18.6-11.1 1.4-175.8 31-200.5 36-38.2 7.7-78.3 20.9-128.5 42.2-12.9 5.5-29.6 12.5-37 15.5-33.7 13.8-46.4 21.2-60.5 35.2-8.5 8.4-10.8 11.4-14.3 18.5-12.3 25.2-12.9 53.7-2.2 101 1.6 6.9 4.5 19.2 6.4 27.3l3.6 14.9v79.8l7.9 13.3c17.1 28.6 24.6 37.1 53.6 60.6 15.2 12.3 19.1 15 19.4 13.5.2-1-.2-8-.9-15.6-1.8-20.3-.1-26.6 8.9-33.2 10.7-7.9 28.7-12.3 54.4-13.3 15.5-.6 16.9-.5 18.9 1.3 1.1 1 7.2 8.6 13.3 16.9 17 22.8 36.6 41 53.8 50.1 15.7 8.3 35.7 12.8 71.7 16.4 11.8 1.1 35.9 3.6 53.5 5.5 89.1 9.5 104.3 10.2 200 8.8l73-1.1 35.5-5.6c19.5-3 37-5.8 38.8-6.1l3.2-.6v-21l4.8-2c36.2-15.8 46.4-19 62.2-19.6 24.1-1.1 33 3.8 68 36.9 20.7 19.6 32.5 30.5 40.4 37.4l5.9 5.1-10.4.7c-22.8 1.5-37.2 4.7-46.4 10-10.8 6.4-17.8 19.4-19.9 37.1-1.5 12.1-2.5 31.1-2 34.7l.7 3.9 15.8 7.9 15.7 7.9 43.8 10.1 43.7 10H1189.6l31.9-6.4c17.6-3.6 32.3-6.1 32.6-5.8.4.4 2.1 5.4 3.9 11.2 11.3 37 30.1 74.1 51.5 101.8 28.3 36.6 61.4 58.9 99.8 67.4 10.2 2.3 10.3 2.3 104.7 2.3 105.3 0 102.3.2 123.7-7 68.5-22.9 124.4-102.9 145.6-208.5 19.9-98.4 7.6-205.2-32.9-286.2-27.7-55.4-68-95.6-110.8-110.2-19.1-6.6-21.4-6.9-65.8-7.3l-40.8-.5 1.7-3.1c3.6-7.1 12-18.2 18-23.7 11.6-10.6 26.6-16.8 46.4-19.1 15.2-1.7 96.2-.7 109.4 1.5 28.5 4.6 46.3 12.7 61.3 27.8 25.8 25.8 43.3 74.1 51.9 143.3 2.4 19 2.4 78.7 0 109.5-.9 11.8-4.1 55.5-7.1 97-3.1 41.5-5.8 78.1-6.1 81.2l-.6 5.8h47.3l191.6-64.7c105.5-35.5 196.5-66.2 202.4-68.2l10.6-3.5 6.7 6.2c7.8 7.3 14.6 11.5 23.4 14.2 5.9 1.9 9.2 2 48.5 2 35.6 0 43.1-.2 47.7-1.6 33.5-9.8 60.1-55.6 69.6-119.9 2.5-17 2.5-61 0-78-6.9-46.9-21.7-81.9-43.6-103.5-12.3-12.2-24.4-18-37.4-18-5.1 0-5.8-.2-4.7-1.5.6-.7 3.4-2.5 6.1-3.9l4.9-2.4 47 .6 47 .5v-8.8c0-8.6-.1-9.1-4.1-15.6-4.5-7.5-5.3-8.3-8.9-9.4-4.8-1.4-14.3-7.8-19.6-13.2-2.9-3-9.9-12.2-15.5-20.6-14.1-20.9-22.9-29.5-36.9-36.5-13.1-6.4-23.3-9.4-48-13.8-35.1-6.3-45.3-9-59-15.9-15.8-8-31.7-22.1-44.6-39.5-9.5-12.9-30.1-44.5-61.4-94-14.4-22.8-28.6-44.7-31.5-48.6-11.9-15.8-31.7-32.7-51.6-44-19.2-10.9-32.7-16.1-86.9-33.4-47.1-15-69.8-20-100-22-9.6-.6-34.6-2.4-55.5-4-20.9-1.7-47.7-3.7-59.5-4.6-24.8-1.8-97.6-2.7-115-1.4zm184.9 44.8c12.2 4.2 25.8 11.3 31.5 16.3 10.2 9 14.5 26.2 18.1 71.9.9 11.8 3.9 35.5 7 55.9 3 19.5 5.5 36.1 5.5 36.9 0 2-13 1.4-79.5-3.3-151.8-10.8-206.3-13.5-271.5-13.5-68.3 0-108.1 2.8-194.2 13.5l-35.6 4.5h-34.6c-19 0-34.6-.3-34.6-.6 0-.4 2.9-4.5 6.4-9.3 3.5-4.7 15.3-21.4 26.1-37.1 40.5-58.2 61.5-83.6 77-92.8 10.8-6.3 20.7-9.8 45.8-16.2 16-4 26.1-6 32.7-6.5 5.2-.3 36.1-2.8 68.5-5.5 173.1-14.4 231.2-17.9 293-17.6l29 .1 9.4 3.3zm146.6 48.2c12.1 16.5 16.6 23.7 25.3 40.2 10.1 19.4 10.7 20.8 14.8 37.2 2.4 9.4 4.4 17.2 4.4 17.3 0 .2-6.1.3-13.6.3h-13.7l-15.4 9.5c-8.5 5.2-15.8 9.5-16.2 9.5-.3 0-2.5-13.2-4.9-29.3l-4.2-29.2V842h8.7l14.8 20zm40.5-11c30.8 9.6 38.9 12.5 50.5 18 25.2 12 37.7 27.4 62.5 77 8.1 16.3 44.4 99.9 43.6 100.7-.6.6-112.9-18.6-113.9-19.6-1.5-1.5-3.6-11.5-7.7-35.9-8.8-53-14-71.3-27.6-97-11.3-21.3-22.6-39.3-29.8-47.1-3-3.1-3.5-4.2-2.1-3.8 1.1.4 12.1 3.8 24.5 7.7zM195.6 1147.4c16.6 7.7 28.7 31 32.5 62.6 1.4 11.4.6 32.2-1.6 43.6-3.8 20.2-13.3 39.4-23.5 47.4-6.7 5.3-12.5 7.3-19.5 6.8-7.5-.6-11.3-2.6-18.3-9.2-16.8-15.8-26.1-50.2-23.1-84.7 4.1-47.5 28.7-78.1 53.5-66.5zm917.9-.9c3.3.8 9.8 3.4 14.5 5.7 11 5.5 25.2 19.2 32.8 31.7 22.3 36.6 24.2 86.2 4.7 125.6-9.4 19-21.5 32.1-37.6 40.5-9.5 4.9-17.9 7-28.9 7-23.7 0-43.9-12-59.7-35.5-22.7-33.7-26.6-84.6-9.4-123.5 8.9-20.3 24.3-37.9 40.2-45.8 4.6-2.3 10.9-4.8 13.9-5.6 7.3-1.9 22.1-2 29.5-.1zm-482.8 114c68 8.8 82.5 11 184.8 28.6 61.1 10.4 111.6 19.2 112.3 19.4.9.3 1.2 6.1 1.2 24.4v23.9l-27.7.7c-35.4 1-244.4-.1-287.3-1.5-48.9-1.5-93.7-3.8-141.5-7.1-23.6-1.6-49.3-3.4-57-3.9-14.6-1-85.3-5-88.6-5-1.8 0-1.9-1.1-1.9-22.9v-22.9l29.7-16.6 29.6-16.6 85.6-4.9c47.1-2.7 85.9-4.9 86.3-5 .4 0 33.9 4.2 74.5 9.4zm1771.3-2.7c9.2 4.3 19.6 20 25.9 39.2 6.8 20.9 9.5 41.1 9.5 70-.1 38.4-6.5 68.8-19.2 90.4-23.9 40.8-57.3 14.4-67.7-53.4-2.3-14.7-3.1-45.8-1.6-61.6 4.9-52.7 24.6-89.9 46.1-86.7 1.9.2 5.1 1.2 7 2.1zm-741.7 66.6c15.8 6 30.4 18.8 43.1 37.8 19.8 29.8 33 69.1 39.7 118.3 2.6 19.3 3.7 67.8 2 88.8-4.6 55-19.3 104.4-41.2 137.7-7.7 11.7-23.8 28-32.9 33.3-13.7 7.9-31.3 10.5-44 6.3-24.4-8.1-43-27.6-60.1-63-29-60.2-37.6-150.6-21.9-229.6 14.2-71.2 46.7-122.1 84.2-131.6 8.2-2.1 22.8-1.2 31.1 2zM338 1375.5c12.6 2.6 40.4 4.9 72 6 9.6.4 33.7 1.7 53.5 3 103 6.9 199.6 10.4 293.5 10.5 19.5.1 43.6.5 53.5 1 28.9 1.5 103.2 2.3 110.5 1.2 3.6-.5 6.7-.8 6.9-.6.5.5-14.1 43.2-15.3 44.9-1.4 1.8-25.8 11.5-58.1 23l-26 9.3-82 7.6c-98.3 9.1-102.9 9.4-140.5 10.2-41 .9-85.7-1.4-120.1-6.2-37.6-5.1-59.5-12.1-110.4-34.7l-19-8.4-15.2-34.4c-8.4-18.9-15.3-34.7-15.3-35.1 0-.4 1.2-.3 2.7.3 1.5.6 5.7 1.6 9.3 2.4z"/>
    <path d="M2371.9 1299.3c-17.8 12-26.1 59-16.8 95.4 1.1 4.3 3.7 11.5 5.9 16 15.8 32.4 40.5 14.3 46.1-33.8 4.5-39.1-9.6-79.9-27.6-79.9-2.7 0-5.4.8-7.6 2.3zm14.9 34.3c5.5 3.8 8.7 16.3 8 30.9-.4 7.8-1 10.4-3.4 15.2-5.2 10.4-11.1 10.8-15.9.9-6.6-13.6-4.7-38.7 3.6-46.4 2.7-2.6 4.7-2.8 7.7-.6zM1602.6 1402.1c-25.9 6.1-48.6 44.9-55.1 94.4-1.9 14.1-2.2 43.9-.5 57 5.9 47.7 24.5 83.8 49 95.4 4.7 2.2 6.8 2.6 15 2.6 8.8 0 10.1-.3 16.4-3.4 21.5-10.6 38.3-41.2 46.2-84.6 2.9-15.6 2.7-58.5-.3-75-5.8-31.5-16.1-55.5-30.4-70.9-12.5-13.4-26.5-18.7-40.3-15.5zm24.3 68.8c4.9 2.5 9.4 7.7 13.1 15.2 10 19.7 10 54.1 0 73.8-13.6 27-35.6 21-45.2-12.4-2-6.9-2.3-10.3-2.3-24.5s.3-17.6 2.3-24.5c6.6-23 19.5-34 32.1-27.6zM256.8 1437.2l-14.8 5v185.3l15.3 5.3c14.8 5.1 15.5 5.2 26.2 5.2 10 0 12.4-.4 27.1-4.6l16.2-4.6 7.6-7.7 7.6-7.6.6-8.5.6-8.5-14.3-7.5-14.4-7.5-3.7-17c-3.5-16.1-3.7-17.9-3.7-35.5v-18.5l15.2-9.8 15.2-9.7h34l-5.8-2.4c-3.2-1.3-6.3-2.8-7-3.4-.6-.5-5.9-4.7-11.7-9.4-5.8-4.6-21.1-16.3-34.1-26.1l-23.5-17.7-9 .1c-7.9 0-10.5.6-23.6 5.1zM885 1474.9l-17.5 5.7v215.7l17.9 6.4 18 6.3h12c11.6 0 12.8-.2 31.7-5.6l19.6-5.6 8.6-8.7 8.5-8.6.9-9.8.9-9.8-8.6-4.6c-4.7-2.5-12.2-6.6-16.7-9-5.7-3-8.4-5.1-8.8-6.6-.3-1.2-2.3-10.4-4.5-20.5-3.9-18.1-4-18.6-4-39v-20.7l17.1-11 17-11 20.7-.5 20.7-.5-7-2.8c-3.9-1.5-8.8-4.2-11.1-6-2.3-1.7-8.3-6.6-13.5-10.8-5.2-4.1-21.7-16.8-36.8-28.2l-27.3-20.7-10.2.1c-9.5.1-11.2.4-27.6 5.8z"/>
    <path d="M367 1504.7c-1.4.2-11.4 2.9-22.3 5.9-10.8 3-20 5.4-20.2 5.4-.3 0-.5 13.8-.5 30.6v30.5l6.3 2.9c9.7 4.4 60 22.4 72.2 25.8 38.2 10.8 75.7 16.3 132 19.2 13.4.7 19.2 1.3 19.8 2.2 11 18.2 13 21 21.7 29.8 7 7 11.4 10.5 16.5 13.2 14.7 7.5 13 7.3 62 7.3s47.3.2 62-7.3c9.4-4.9 23.1-18.5 30.8-30.8l5.8-9.1 47.7-.6c26.2-.3 48.7-.9 49.9-1.3l2.3-.6v-51.4c0-48.3-.1-51.4-1.7-51.4-1 0-20.2.9-42.8 2-144.5 6.9-224.9 4.6-349.7-10-9.2-1.1-23.4-3.4-31.5-5-8.2-1.7-19.5-4-25.3-5.1-10.5-2-30.3-3.2-35-2.2z"/>
</svg>